<svg width="746" height="746" viewBox="0 0 746 746" fill="none" xmlns="http://www.w3.org/2000/svg">
<rect width="746" height="746" rx="100" fill="#211293"/>
<rect width="746" height="746" rx="100" fill="url(#paint0_linear_24_9)" fill-opacity="0.2"/>
<path d="M473.136 287.771C463.042 287.771 454.834 295.979 454.834 306.072C454.834 316.166 463.042 324.38 473.136 324.38C483.224 324.38 491.438 316.166 491.438 306.072C491.438 295.979 483.23 287.771 473.136 287.771Z" fill="white"/>
<path d="M434.494 178.234C432.005 176.855 429.293 176.371 426.477 176.371C390.836 176.371 355.189 176.371 319.547 176.371C317.965 176.371 316.4 176.517 314.87 176.929C311.458 177.84 308.677 179.653 306.768 182.677C304.961 185.548 304.398 188.7 304.894 192.022C305.581 196.61 308.024 199.949 312.201 201.986C314.515 203.118 316.992 203.489 319.542 203.489C337.371 203.489 355.2 203.489 373.023 203.489C390.842 203.489 408.653 203.489 426.471 203.489C427.991 203.489 429.494 203.359 430.975 202.993C434.195 202.194 436.886 200.579 438.834 197.854C440.979 194.842 441.671 191.458 441.142 187.838C440.512 183.565 438.283 180.339 434.494 178.234ZM332.389 198.32C332.068 198.32 331.764 198.32 331.465 198.32C330.182 198.32 328.892 198.309 327.609 198.326C327.328 198.331 327.181 198.236 327.034 197.999C324.766 194.329 322.491 190.664 320.211 186.999C320.138 186.881 320.06 186.763 319.98 186.644C319.946 186.65 319.919 186.655 319.885 186.666C319.885 188.597 319.885 190.528 319.885 192.459C319.885 194.395 319.885 196.332 319.885 198.297C318.156 198.297 316.467 198.297 314.739 198.297C314.739 192.702 314.739 187.105 314.739 181.464C314.874 181.464 315.004 181.464 315.127 181.464C316.585 181.464 318.038 181.476 319.497 181.459C319.806 181.453 319.986 181.538 320.155 181.82C322.396 185.48 324.653 189.122 326.911 192.775C326.984 192.899 327.064 193.017 327.221 193.124C327.221 189.251 327.221 185.378 327.221 181.487C328.971 181.487 330.66 181.487 332.378 181.487C332.389 187.095 332.389 192.691 332.389 198.32ZM335.355 181.459C336.2 181.459 337.033 181.459 337.866 181.459C338.688 181.459 339.515 181.459 340.371 181.459C340.371 182.579 340.371 183.689 340.371 184.831C338.722 184.831 337.055 184.831 335.355 184.831C335.355 183.712 335.355 182.608 335.355 181.459ZM340.388 198.298C338.717 198.298 337.066 198.298 335.384 198.298C335.384 194.588 335.384 190.884 335.384 187.157C337.051 187.157 338.706 187.157 340.388 187.157C340.388 190.889 340.388 194.582 340.388 198.298ZM357.982 198.298C356.338 198.298 354.705 198.298 353.011 198.298C353.011 198.163 353.011 198.022 353.011 197.882C353.011 195.664 353.011 193.446 353.011 191.227C353.011 190.067 352.307 189.167 351.221 188.936C350.049 188.688 348.833 189.251 348.4 190.276C348.276 190.569 348.236 190.913 348.231 191.227C348.22 193.434 348.231 195.641 348.236 197.848C348.236 197.988 348.236 198.135 348.236 198.298C346.542 198.298 344.921 198.298 343.265 198.298C343.265 194.583 343.265 190.879 343.265 187.151C344.904 187.151 346.536 187.151 348.231 187.151C348.231 187.5 348.231 187.849 348.231 188.288C348.411 188.142 348.518 188.068 348.614 187.984C350.928 186.042 354.469 186.194 356.557 188.321C357.531 189.317 357.964 190.55 357.987 191.913C358.021 193.985 357.998 196.062 357.998 198.134C358.004 198.191 357.987 198.236 357.982 198.298ZM365.885 198.292C364.191 198.292 362.53 198.292 360.813 198.292C360.813 194.582 360.813 190.867 360.813 187.123C359.884 187.123 359.006 187.123 358.065 187.123C358.065 186.605 358.054 186.115 358.083 185.625C358.083 185.569 358.28 185.49 358.392 185.484C359.18 185.473 359.969 185.479 360.802 185.479C360.802 184.725 360.802 183.992 360.802 183.232C362.502 183.232 364.157 183.232 365.869 183.232C365.869 183.97 365.869 184.69 365.869 185.462C366.787 185.462 367.676 185.462 368.588 185.462C368.588 186.036 368.588 186.56 368.588 187.117C367.682 187.117 366.803 187.117 365.891 187.117C365.885 190.85 365.885 194.554 365.885 198.292ZM373.463 195.95C373.621 197.036 374.527 197.655 375.603 197.617C376.587 197.577 377.386 196.829 377.534 195.77C377.595 195.343 377.601 194.904 377.64 194.426C378.463 194.426 379.279 194.426 380.101 194.426C380.911 194.426 381.723 194.426 382.589 194.426C382.522 194.611 382.476 194.769 382.409 194.915C381.531 196.806 380.016 197.983 378.068 198.574C375.249 199.436 372.586 199.07 370.244 197.212C368.678 195.973 367.862 194.329 368.003 192.291C368.11 190.72 368.836 189.443 369.996 188.419C371.736 186.887 373.796 186.302 376.087 186.465C378.058 186.606 379.774 187.331 381.176 188.745C382.274 189.855 382.932 191.403 382.876 192.76C379.696 192.76 376.537 192.76 373.295 192.76C373.345 193.856 373.311 194.92 373.463 195.95ZM399.207 198.292C397.574 198.292 395.947 198.292 394.269 198.292C394.258 198.151 394.241 197.999 394.241 197.848C394.241 195.663 394.241 193.479 394.241 191.3C394.241 190.146 393.701 189.346 392.699 189.008C391.685 188.665 390.537 189.008 389.889 189.847C389.585 190.236 389.462 190.674 389.462 191.17C389.467 193.377 389.467 195.584 389.467 197.79C389.467 197.948 389.467 198.106 389.467 198.291C387.8 198.291 386.162 198.291 384.496 198.291C384.496 194.587 384.496 190.882 384.496 187.156C386.146 187.156 387.773 187.156 389.462 187.156C389.462 187.511 389.462 187.865 389.462 188.327C389.653 188.169 389.76 188.078 389.866 187.989C392.315 185.945 396.11 186.244 398.075 188.642C398.767 189.487 399.172 190.461 399.195 191.541C399.24 193.726 399.223 195.904 399.235 198.089C399.235 198.146 399.218 198.203 399.207 198.292ZM415.172 198.298C413.529 198.298 411.896 198.298 410.235 198.298C410.219 198.112 410.202 197.927 410.185 197.685C408.479 198.675 406.706 198.929 404.853 198.293C403.638 197.876 402.675 197.094 401.937 196.046C400.53 194.053 400.552 191.301 401.999 189.262C402.607 188.407 403.367 187.731 404.313 187.258C405.248 186.791 406.233 186.616 407.269 186.684C408.322 186.751 409.25 187.162 410.212 187.686C410.212 186.605 410.212 185.591 410.212 184.578C410.212 183.56 410.212 182.541 410.212 181.482C411.885 181.482 413.518 181.482 415.172 181.482C415.172 187.09 415.172 192.685 415.172 198.298ZM429.416 197.167C427.918 198.388 426.178 198.923 424.095 198.929C422.227 198.906 420.396 198.304 418.871 196.93C416.203 194.521 416.237 190.682 418.933 188.306C421.854 185.738 426.662 185.716 429.568 188.255C432.434 190.76 432.365 194.762 429.416 197.167Z" fill="white"/>
<path d="M508.028 326.334C497.934 326.334 489.726 334.542 489.726 344.636C489.726 354.73 497.934 362.938 508.028 362.938C518.117 362.938 526.33 354.73 526.33 344.636C526.33 334.542 518.123 326.334 508.028 326.334Z" fill="white"/>
<path d="M595.154 203.235V186.707C561.178 160.078 484.508 158.699 484.508 158.699L480.382 152.276C433.075 123.621 374.094 125.608 373.002 125.647C371.915 125.608 312.927 123.621 265.627 152.275L261.495 158.704C261.495 158.704 184.825 160.084 150.85 186.711V203.241C150.85 203.241 113.052 236.602 113.052 278.228C113.052 319.853 84.8926 451.464 122.848 523.692C160.797 595.915 194.463 467.368 198.139 443.497C201.816 419.628 214.667 390.24 222.623 385.956C222.623 385.956 293.015 381.058 296.079 436.15C299.135 491.208 319.008 644.689 372.952 647.324V647.336C372.97 647.336 372.985 647.329 373.003 647.329C373.02 647.329 373.037 647.336 373.054 647.336V647.324C426.997 644.684 446.87 491.202 449.927 436.15C452.989 381.058 523.383 385.956 523.383 385.956C531.343 390.24 544.196 419.621 547.866 443.497C551.537 467.372 585.208 595.92 623.158 523.686C661.107 451.452 632.952 319.847 632.952 278.222C632.957 236.597 595.154 203.235 595.154 203.235ZM251.147 293.828C251.147 298.416 247.414 302.155 242.821 302.155H222.679V322.292C222.679 326.88 218.946 330.617 214.353 330.617H199.665C195.077 330.617 191.339 326.885 191.339 322.292V302.155H171.195C166.606 302.155 162.868 298.416 162.868 293.828V279.14C162.868 274.552 166.601 270.813 171.195 270.813H191.338V250.676C191.338 246.088 195.07 242.35 199.664 242.35H214.352C218.94 242.35 222.678 246.082 222.678 250.676V270.813H242.82C247.409 270.813 251.146 274.546 251.146 279.14V293.828H251.147ZM549.35 221.999C559.512 221.999 567.776 230.263 567.776 240.419C567.776 250.575 559.512 258.839 549.35 258.839C539.195 258.839 530.93 250.575 530.93 240.419C530.93 230.263 539.188 221.999 549.35 221.999ZM518.128 253.215C528.29 253.215 536.555 261.479 536.555 271.635C536.555 281.79 528.29 290.061 518.128 290.061C507.973 290.061 499.709 281.791 499.709 271.635C499.709 261.478 507.973 253.215 518.128 253.215ZM373.002 473.447C341.127 473.447 315.197 447.518 315.197 415.642C315.197 383.766 341.126 357.83 373.002 357.83C404.876 357.83 430.806 383.76 430.806 415.642C430.807 447.518 404.876 473.447 373.002 473.447ZM349.07 310.661C349.07 297.465 359.806 286.729 373.002 286.729C386.197 286.729 396.933 297.465 396.933 310.661C396.933 323.863 386.197 334.598 373.002 334.598C359.806 334.598 349.07 323.862 349.07 310.661ZM445.049 194.988C443.113 201.805 437.32 206.63 429.832 207.632C429.14 207.722 428.441 207.784 427.743 207.863C391.258 207.863 354.778 207.863 318.292 207.863C317.836 207.813 317.38 207.762 316.924 207.717C314.317 207.458 311.829 206.771 309.532 205.505C304.393 202.668 301.358 198.338 300.463 192.522C300.367 191.892 300.317 191.25 300.243 190.614C300.243 190.175 300.243 189.742 300.243 189.302C300.317 188.654 300.373 188.001 300.463 187.36C301.121 182.851 303.187 179.107 306.717 176.225C310.331 173.269 314.554 172.008 319.164 172.008C355.064 171.997 390.959 172.003 426.859 172.003C428.746 172.003 430.603 172.233 432.427 172.728C442.663 175.492 447.74 185.507 445.049 194.988ZM449.205 306.072C449.205 292.877 459.941 282.141 473.136 282.141C486.333 282.141 497.069 292.877 497.069 306.072C497.069 319.274 486.333 330.009 473.136 330.009C459.941 330.009 449.205 319.268 449.205 306.072ZM508.028 368.567C494.832 368.567 484.097 357.831 484.097 344.635C484.097 331.44 494.832 320.704 508.028 320.704C521.225 320.704 531.961 331.44 531.961 344.635C531.961 357.831 521.225 368.567 508.028 368.567ZM549.35 321.283C539.195 321.283 530.93 313.019 530.93 302.864C530.93 292.708 539.195 284.443 549.35 284.443C559.512 284.443 567.776 292.707 567.776 302.864C567.776 313.02 559.506 321.283 549.35 321.283ZM580.567 290.067C570.412 290.067 562.147 281.798 562.147 271.641C562.147 261.485 570.412 253.221 580.567 253.221C590.729 253.221 598.993 261.485 598.993 271.641C598.993 281.798 590.729 290.067 580.567 290.067Z" fill="white"/>
<path d="M426.071 188.959C425.768 188.136 425.103 187.721 424.236 187.721C423.386 187.721 422.728 188.125 422.418 188.931C422.248 189.37 422.153 189.871 422.147 190.344C422.113 191.88 422.13 193.424 422.136 194.96C422.136 195.225 422.164 195.496 422.209 195.754C422.395 196.795 423.16 197.517 424.111 197.55C425.3 197.595 426.211 196.79 426.284 195.534C426.341 194.566 426.296 193.598 426.296 192.629C426.313 192.629 426.324 192.629 426.341 192.629C426.341 191.902 426.374 191.171 426.329 190.444C426.302 189.945 426.246 189.427 426.071 188.959Z" fill="white"/>
<path d="M549.35 315.648C556.414 315.648 562.141 309.922 562.141 302.857C562.141 295.793 556.414 290.066 549.35 290.066C542.286 290.066 536.559 295.793 536.559 302.857C536.559 309.922 542.286 315.648 549.35 315.648Z" fill="white"/>
<path d="M580.566 284.438C587.634 284.438 593.363 278.708 593.363 271.641C593.363 264.574 587.634 258.845 580.566 258.845C573.499 258.845 567.77 264.574 567.77 271.641C567.77 278.708 573.499 284.438 580.566 284.438Z" fill="white"/>
<path d="M373.002 363.467C344.234 363.467 320.826 386.875 320.826 415.648C320.826 444.421 344.234 467.824 373.002 467.824C401.769 467.824 425.177 444.422 425.177 415.648C425.177 386.874 401.774 363.467 373.002 363.467ZM373.002 443.763C357.498 443.763 344.887 431.152 344.887 415.649C344.887 400.145 357.497 387.535 373.002 387.535C388.505 387.535 401.116 400.145 401.116 415.649C401.116 431.152 388.505 443.763 373.002 443.763Z" fill="white"/>
<path d="M518.128 284.438C525.195 284.438 530.924 278.708 530.924 271.641C530.924 264.574 525.195 258.845 518.128 258.845C511.061 258.845 505.332 264.574 505.332 271.641C505.332 278.708 511.061 284.438 518.128 284.438Z" fill="white"/>
<path d="M373.002 393.157C360.605 393.157 350.517 403.246 350.517 415.642C350.517 428.038 360.605 438.126 373.002 438.126C385.398 438.126 395.486 428.038 395.486 415.642C395.486 403.246 385.398 393.157 373.002 393.157Z" fill="white"/>
<path d="M549.35 253.217C556.414 253.217 562.141 247.49 562.141 240.426C562.141 233.361 556.414 227.635 549.35 227.635C542.286 227.635 536.559 233.361 536.559 240.426C536.559 247.49 542.286 253.217 549.35 253.217Z" fill="white"/>
<path d="M375.541 187.777C374.538 187.743 373.644 188.435 373.453 189.443C373.368 189.866 373.384 190.31 373.345 190.744C373.323 190.981 373.418 191.065 373.655 191.06C374.263 191.049 374.865 191.054 375.473 191.054C376.081 191.054 376.683 191.043 377.292 191.06C377.551 191.065 377.641 190.975 377.618 190.722C377.584 190.339 377.59 189.946 377.533 189.562C377.381 188.548 376.542 187.805 375.541 187.777Z" fill="white"/>
<path d="M242.821 276.443H217.048V250.677C217.048 249.19 215.837 247.979 214.352 247.979H199.664C198.177 247.979 196.967 249.19 196.967 250.677V276.443H171.195C169.708 276.443 168.498 277.654 168.498 279.14V293.828C168.498 295.32 169.708 296.525 171.195 296.525H196.967V322.292C196.967 323.779 198.177 324.988 199.664 324.988H214.352C215.837 324.988 217.048 323.779 217.048 322.292V296.525H242.821C244.308 296.525 245.517 295.315 245.517 293.828V279.14C245.517 277.654 244.308 276.443 242.821 276.443Z" fill="white"/>
<path d="M391.308 310.661C391.308 300.567 383.1 292.359 373.006 292.359C362.912 292.359 354.704 300.567 354.704 310.661C354.704 320.755 362.912 328.969 373.006 328.969C383.101 328.969 391.308 320.755 391.308 310.661Z" fill="white"/>
<path d="M408.22 188.469C407.111 188.486 406.301 189.218 406.272 190.31C406.233 191.875 406.239 193.44 406.272 194.999C406.295 196.086 407.111 196.84 408.204 196.874C409.274 196.908 410.136 196.181 410.214 195.089C410.271 194.296 410.226 193.491 410.226 192.691C410.226 191.869 410.271 191.042 410.214 190.22C410.128 189.139 409.301 188.452 408.22 188.469Z" fill="white"/>
<defs>
<linearGradient id="paint0_linear_24_9" x1="373" y1="0" x2="373" y2="746" gradientUnits="userSpaceOnUse">
<stop stop-color="white" stop-opacity="0"/>
<stop offset="1" stop-color="white"/>
</linearGradient>
</defs>
</svg>
